<svg id="SvgjsSvg1001" width="288" height="288" xmlns="http://www.w3.org/2000/svg" version="1.1" xmlns:xlink="http://www.w3.org/1999/xlink" xmlns:svgjs="http://svgjs.com/svgjs"><defs id="SvgjsDefs1002"></defs><g id="SvgjsG1008" transform="matrix(0.9167,0,0,0.9167,11.995200000000011,11.995200000000011)"><svg xmlns="http://www.w3.org/2000/svg" viewBox="0 0 24 24" width="288" height="288"><g data-name="Layer 2" fill="#ffffff" class="color000 svgShape"><g data-name="monitor" fill="#ffffff" class="color000 svgShape"><rect width="24" height="24" opacity="0" fill="#ffffff" class="color000 svgShape"></rect><path d="M19 3H5a3 3 0 0 0-3 3v5h20V6a3 3 0 0 0-3-3zM2 14a3 3 0 0 0 3 3h6v2H7a1 1 0 0 0 0 2h10a1 1 0 0 0 0-2h-4v-2h6a3 3 0 0 0 3-3v-1H2z" fill="#ffffff" class="color000 svgShape"></path></g></g></svg></g></svg>