<svg id="SvgjsSvg1001" width="288" height="288" xmlns="http://www.w3.org/2000/svg" version="1.1" xmlns:xlink="http://www.w3.org/1999/xlink" xmlns:svgjs="http://svgjs.com/svgjs"><defs id="SvgjsDefs1002"></defs><g id="SvgjsG1008" transform="matrix(0.9167,0,0,0.9167,11.995200000000011,11.995200000000011)"><svg xmlns="http://www.w3.org/2000/svg" width="288" height="288" fill="none" viewBox="0 0 24 24"><path stroke="#ffffff" stroke-linecap="round" stroke-linejoin="round" stroke-width="2" d="M8 8C8 6 8.5 3 12 3C15.5 3 16 6 16 8" fill="#ffffff" class="color000 svgShape colorStroke000 svgStroke"></path><circle cx="12" cy="14" r="1" stroke="#ffffff" stroke-width="2" fill="#ffffff" class="color000 svgShape colorStroke000 svgStroke"></circle><path stroke="#ffffff" stroke-linecap="round" stroke-linejoin="round" stroke-width="2" d="M12 17V15M4 11C4 9.89543 4.89543 9 6 9H18C19.1046 9 20 9.89543 20 11V19C20 20.1046 19.1046 21 18 21H6C4.89543 21 4 20.1046 4 19V11z" fill="#ffffff" class="color000 svgShape colorStroke000 svgStroke"></path></svg></g></svg>